# xmcd CD database file
#
# Track frame offsets:
#	150
#	15491
#	33056
#	52846
#	67711
#	79173
#	99236
#	116434
#	129442
#	143927
#	162271
#	179977
#	196098
#	211615
#	225927
#	244992
#
# Disc length: 3425 seconds
#
# Revision: 10
# Processed by: cddbd v1.5.1PL2 Copyright (c) Steve Scherf et al.
# Submitted via: Feurio! 1.68 - http://www.feurio.com
#
DISCID=c00d5f10
DTITLE=The BossHoss - Internashville Urban Hymns
DYEAR=2005
DGENRE=Country
TTITLE0=Yee Haw
TTITLE1=Hey Ya
TTITLE2=Toxic
TTITLE3=Loser
TTITLE4=Sabotage
TTITLE5=Hot In Herre
TTITLE6=Seven Nation Army
TTITLE7=Drowned In Lake Daniels
TTITLE8=A Little Less Conversation
TTITLE9=Hey Joe
TTITLE10=Eyes Without A Face
TTITLE11=Unbelievable
TTITLE12=All The Things She Said
TTITLE13=Remedy
TTITLE14=Word Up
TTITLE15=Like Ice In The Sunshine
EXTD=YEAR: 2005
EXTT0=
EXTT1=
EXTT2=
EXTT3=
EXTT4=
EXTT5=
EXTT6=
EXTT7=
EXTT8=
EXTT9=
EXTT10=
EXTT11=
EXTT12=
EXTT13=
EXTT14=
EXTT15=
PLAYORDER=
